<svg width="800" height="350" xmlns="http://www.w3.org/2000/svg">
  <style>
    .title { font-family: Arial, sans-serif; font-size: 16px; font-weight: bold; fill: #333; }
    .subtitle { font-family: Arial, sans-serif; font-size: 14px; font-weight: bold; fill: #555; }
    .text { font-family: Arial, sans-serif; font-size: 12px; fill: #666; }
    .code { font-family: 'Courier New', monospace; font-size: 11px; fill: #333; }
    .branch { stroke: #4682b4; stroke-width: 2; fill: none; }
    .commit { fill: #333; }
    .conflict { fill: #ff6b6b; }
    .box { fill: #f8f9fa; stroke: #dee2e6; stroke-width: 1; }
  </style>
  
  <text x="400" y="30" text-anchor="middle" class="title">Git 合并冲突解决</text>
  
  <!-- 分支图 -->
  <text x="400" y="60" text-anchor="middle" class="subtitle">分支合并冲突场景</text>
  
  <line x1="50" y1="80" x2="400" y2="80" class="branch"/>
  <circle cx="100" cy="80" r="6" class="commit"/>
  <text x="100" y="84" class="text">A</text>
  <circle cx="200" cy="80" r="6" class="commit"/>
  <text x="200" y="84" class="text">B</text>
  <circle cx="300" cy="80" r="6" class="commit"/>
  <text x="300" y="84" class="text">C</text>
  <circle cx="400" cy="80" r="8" class="conflict"/>
  <text x="400" y="84" class="text">!</text>
  <text x="450" y="85" class="text">main</text>
  
  <line x1="200" y1="100" x2="350" y2="100" class="branch"/>
  <circle cx="250" cy="100" r="4" class="commit"/>
  <text x="250" y="103" class="text">E</text>
  <circle cx="350" cy="100" r="4" class="commit"/>
  <text x="350" y="103" class="text">F</text>
  <text x="400" y="105" class="text">feature1</text>
  
  <line x1="200" y1="120" x2="350" y2="120" class="branch"/>
  <circle cx="250" cy="120" r="4" class="commit"/>
  <text x="250" y="123" class="text">G</text>
  <circle cx="350" cy="120" r="4" class="commit"/>
  <text x="350" y="123" class="text">H</text>
  <text x="400" y="125" class="text">feature2</text>
  
  <!-- 冲突文件示例 -->
  <text x="400" y="160" text-anchor="middle" class="subtitle">冲突文件内容</text>
  
  <rect x="50" y="180" width="300" height="80" class="box"/>
  <text x="60" y="200" class="subtitle">冲突前</text>
  <text x="60" y="220" class="code">function calculate(a, b) {</text>
  <text x="60" y="235" class="code">    return a + b;</text>
  <text x="60" y="250" class="code">}</text>
  
  <rect x="450" y="180" width="300" height="80" class="box"/>
  <text x="460" y="200" class="subtitle">冲突后</text>
  <text x="460" y="220" class="code">function calculate(a, b) {</text>
  <text x="460" y="235" class="code">&lt;&lt;&lt;&lt;&lt;&lt;&lt; HEAD</text>
  <text x="460" y="250" class="code">    return a + b;</text>
  <text x="460" y="265" class="code">=======</text>
  <text x="460" y="280" class="code">    return a + b + 1;</text>
  <text x="460" y="295" class="code">&gt;&gt;&gt;&gt;&gt;&gt;&gt; feature1</text>
  
  <!-- 解决步骤 -->
  <text x="400" y="320" text-anchor="middle" class="subtitle">解决步骤</text>
  <text x="400" y="340" text-anchor="middle" class="text">1. git status 查看冲突 2. 编辑文件解决冲突 3. git add 标记解决 4. git commit 完成合并</text>
</svg> 